#!OML:ASF X:\für Bonn\!DataBase\2005_08_10_Bjorn_Final\c3d\bjorn.ASF
:FULLY-SPECIFIED
:DEGREES
313
root 13.059 19.3288 -0.111019 -501.601 86.7595 -507.791
lowerback -1.21534 2.83416 2.47119
upperback 6.03061 3.92496 -1.72486
thorax 7.26853 2.19873 -2.87782
lowerneck 3.99659 -3.42419 7.61218
upperneck 18.9737 -3.40511 -3.39006
head 4.85384 -1.03233 -2.39698
rclavicle 3.81667e-014 -5.96354e-015
rhumerus -36.1341 -3.5098 -82.9811
rradius 30.7888
rwrist -0.876245
rhand -12.081 11.7757
rfingers 7.12502
rthumb 13.979 -17.7343
lclavicle 3.81667e-014 -5.96354e-015
lhumerus -40.484 -33.6755 90.798
lradius 39.0139
lwrist -5.62375
lhand -14.34 -9.35432
lfingers 7.12502
lthumb 11.8013 20.2932
rfemur -0.486509 -4.19107 11.1703
rtibia 22.5419
rfoot -8.25561 20.4588
rtoes -12.2445
lfemur -15.8011 13.0881 -17.7307
ltibia 30.373
lfoot -13.5839 -14.308
ltoes -1.24726
314
root 13.0828 19.2973 -0.108058 -505.534 86.8621 -511.665
lowerback -1.33067 2.77804 2.06742
upperback 5.81563 3.86485 -1.85169
thorax 7.0792 2.14171 -2.79072
lowerneck 3.94719 -3.35944 7.6664
upperneck 19.0069 -3.3286 -3.35922
head 4.87664 -0.989556 -2.39604
rclavicle -8.46823e-014 2.50469e-014
rhumerus -36.7581 -4.02822 -82.7281
rradius 31.5718
rwrist -0.894851
rhand -11.2459 11.5652
rfingers 7.12502
rthumb 14.7836 -17.8875
lclavicle -8.46823e-014 2.50469e-014
lhumerus -40.3018 -32.5133 90.2894
lradius 39.343
lwrist -3.2067
lhand -12.9699 -8.95437
lfingers 7.12502
lthumb 13.1222 20.6128
rfemur 0.0628515 -4.22807 10.952
rtibia 21.9617
rfoot -9.00657 20.3933
rtoes -13.11
lfemur -15.8455 14.1445 -17.9373
ltibia 30.6829
lfoot -13.5597 -15.604
ltoes -0.399284
315
root 13.1059 19.2663 -0.105094 -510.982 86.9869 -517.07
lowerback -1.44169 2.71691 1.57539
upperback 5.59806 3.80437 -1.99741
thorax 6.88128 2.0817 -2.67389
lowerneck 3.92508 -3.28575 7.71751
upperneck 19.0317 -3.23887 -3.31506
head 4.89357 -0.939539 -2.38948
rclavicle -3.97569e-015 -2.22639e-014
rhumerus -37.3523 -4.53688 -82.4498
rradius 32.3375
rwrist -0.898861
rhand -10.3685 11.4173
rfingers 7.12502
rthumb 15.6287 -17.9714
lclavicle -3.97569e-015 -2.22639e-014
lhumerus -40.0679 -31.2352 89.7554
lradius 39.6707
lwrist 0.434815
lhand -11.2671 -8.47363
lfingers 7.12502
lthumb 14.7632 20.9806
rfemur 0.552806 -4.32114 10.6432
rtibia 21.4623
rfoot -9.79417 20.3327
rtoes -14.0659
lfemur -15.8976 15.1931 -18.2269
ltibia 30.9769
lfoot -13.4588 -16.9278
ltoes 0.723861
316
root 13.1279 19.2363 -0.101716 -517.779 87.0973 -523.827
lowerback -1.54991 2.64024 1.0349
upperback 5.39316 3.728 -2.15829
thorax 6.69405 2.01402 -2.54638
lowerneck 3.92273 -3.21552 7.81236
upperneck 19.048 -3.14035 -3.35408
head 4.90231 -0.887083 -2.41555
rclavicle 1.39149e-014 -2.74323e-014
rhumerus -37.8913 -5.23604 -82.0684
rradius 33.0068
rwrist -0.526019
rhand -9.47177 11.454
rfingers 7.12502
rthumb 16.4923 -17.865
lclavicle 1.39149e-014 -2.74323e-014
lhumerus -39.7404 -29.7651 89.1176
lradius 39.9707
lwrist 4.89926
lhand -9.30305 -8.0509
lfingers 7.12502
lthumb 16.6547 21.2546
rfemur 0.992586 -4.38458 10.2875
rtibia 21.044
rfoot -10.5164 20.233
rtoes -14.5956
lfemur -15.9397 16.275 -18.56
ltibia 31.236
lfoot -13.2228 -18.3382
ltoes 2.09792
317
root 13.1492 19.2087 -0.0977858 -525.904 87.183 -531.931
lowerback -1.64823 2.57203 0.446177
upperback 5.17583 3.66656 -2.33509
thorax 6.48886 1.95339 -2.40758
lowerneck 3.85308 -3.15962 7.92198
upperneck 19.1785 -3.05546 -3.43721
head 4.95551 -0.838771 -2.4609
rclavicle -8.94531e-015 -1.59028e-015
rhumerus -38.4626 -5.94187 -81.6795
rradius 33.6467
rwrist -0.172878
rhand -8.6479 11.6414
rfingers 7.12502
rthumb 17.2853 -17.6099
lclavicle -8.94531e-015 -1.59028e-015
lhumerus -39.2702 -27.9796 88.2938
lradius 40.1325
lwrist 10.1395
lhand -6.73753 -7.62715
lfingers 7.12502
lthumb 19.1232 21.4527
rfemur 1.37506 -4.4723 9.88589
rtibia 20.6893
rfoot -11.2391 20.093
rtoes -15.3106
lfemur -16.0003 17.5293 -18.9445
ltibia 31.4595
lfoot -12.8569 -19.8946
ltoes 3.39189
318
root 13.1697 19.1837 -0.0943012 -534.89 87.1885 -540.891
lowerback -1.7099 2.48034 -0.203123
upperback 4.95221 3.57415 -2.48208
thorax 6.25071 1.87545 -2.20753
lowerneck 3.99408 -3.11439 8.05466
upperneck 19.1247 -2.9546 -3.62869
head 4.91486 -0.791355 -2.53777
rclavicle -1.94809e-014 1.66979e-014
rhumerus -39.0525 -6.56657 -81.2419
rradius 34.3225
rwrist 0.0399374
rhand -7.8762 11.7498
rfingers 7.12502
rthumb 18.028 -17.4347
lclavicle -1.94809e-014 1.66979e-014
lhumerus -38.6959 -25.7264 87.3203
lradius 40.1753
lwrist 15.9128
lhand -3.54802 -6.81798
lfingers 7.12502
lthumb 22.1879 21.9286
rfemur 1.73496 -4.56866 9.45584
rtibia 20.404
rfoot -11.9013 19.8974
rtoes -15.9118
lfemur -16.0326 18.6729 -19.3517
ltibia 31.649
lfoot -12.4466 -21.3778
ltoes 4.80996
319
root 13.1904 19.1625 -0.0908309 -543.236 87.1499 -549.239
lowerback -1.78833 2.39269 -0.826237
upperback 4.71558 3.48501 -2.6272
thorax 6.01314 1.80251 -2.01887
lowerneck 4.04561 -3.06322 8.17468
upperneck 19.2345 -2.84865 -3.79716
head 4.941 -0.735222 -2.60912
rclavicle -2.54444e-014 -1.11319e-014
rhumerus -39.6944 -7.11866 -80.8705
rradius 35.0966
rwrist -0.0655842
rhand -7.19615 11.7596
rfingers 7.12502
rthumb 18.6822 -17.3632
lclavicle -2.54444e-014 -1.11319e-014
lhumerus -38.0578 -23.0102 86.1762
lradius 40.1317
lwrist 21.5796
lhand -0.112236 -5.40607
lfingers 7.12502
lthumb 25.4829 22.9101
rfemur 2.02305 -4.69304 9.04992
rtibia 20.1695
rfoot -12.4221 19.7352
rtoes -15.9981
lfemur -16.0874 19.8861 -19.7327
ltibia 31.8136
lfoot -11.9256 -22.9168
ltoes 6.2806
320
root 13.2108 19.1422 -0.0877934 -551.32 87.0637 -557.35
lowerback -1.88237 2.31198 -1.43485
upperback 4.47912 3.40598 -2.78515
thorax 5.78955 1.73813 -1.8498
lowerneck 4.12483 -2.99409 8.27025
upperneck 19.3246 -2.72669 -3.88729
head 4.96006 -0.668628 -2.65081
rclavicle -1.66979e-014 2.06736e-014
rhumerus -40.3455 -7.63225 -80.5626
rradius 35.9106
rwrist -0.435314
rhand -6.67293 11.6131
rfingers 7.12502
rthumb 19.1854 -17.4606
lclavicle -1.66979e-014 2.06736e-014
lhumerus -37.4356 -20.0819 85.0078
lradius 40.0061
lwrist 26.6799
lhand 2.85653 -3.5281
lfingers 7.12502
lthumb 28.3235 24.35
rfemur 2.25509 -4.85465 8.63387
rtibia 19.9729
rfoot -12.6543 19.5898
rtoes -14.8583
lfemur -16.1624 21.1125 -20.1371
ltibia 31.9636
lfoot -11.4315 -24.3935
ltoes 7.44317
321
root 13.2304 19.1254 -0.0846825 -557.987 86.9251 -564.054
lowerback -2.02017 2.22501 -1.99393
upperback 4.29992 3.32131 -2.93183
thorax 5.65579 1.67506 -1.69393
lowerneck 4.11224 -2.9134 8.36177
upperneck 19.4264 -2.60248 -3.96325
head 4.99862 -0.602126 -2.68888
rclavicle 5.76476e-015 -1.98785e-014
rhumerus -40.8854 -8.10569 -80.341
rradius 36.7449
rwrist -1.16589
rhand -6.39212 11.3708
rfingers 7.12502
rthumb 19.4554 -17.6758
lclavicle 5.76476e-015 -1.98785e-014
lhumerus -36.7554 -16.9219 83.7681
lradius 39.7993
lwrist 31.3389
lhand 5.45209 -1.6074
lfingers 7.12502
lthumb 30.8011 25.8318
rfemur 2.45391 -4.98163 8.27238
rtibia 19.8168
rfoot -12.6896 19.4337
rtoes -12.5547
lfemur -16.2517 22.2856 -20.496
ltibia 32.096
lfoot -10.8246 -25.8466
ltoes 8.7611
322
root 13.2491 19.11 -0.0817941 -564.304 86.7395 -570.432
lowerback -2.1641 2.13835 -2.56971
upperback 4.11964 3.23942 -3.07831
thorax 5.52549 1.61419 -1.52815
lowerneck 4.15643 -2.84157 8.43208
upperneck 19.4936 -2.48415 -4.04269
head 5.01706 -0.540377 -2.72334
rclavicle 2.74323e-014 -2.46493e-014
rhumerus -41.4568 -8.56772 -80.126
rradius 37.6664
rwrist -2.11952
rhand -6.28742 10.9935
rfingers 7.12502
rthumb 19.556 -18.043
lclavicle 2.74323e-014 -2.46493e-014
lhumerus -36.1233 -13.4809 82.455
lradius 39.5775
lwrist 35.6206
lhand 8.01492 0.496075
lfingers 7.12502
lthumb 33.2412 27.4451
rfemur 2.59048 -5.14352 7.88203
rtibia 19.707
rfoot -12.7093 19.3123
rtoes -10.37
lfemur -16.2695 23.32 -20.911
ltibia 32.2077
lfoot -10.8949 -26.9377
ltoes 8.41443
323
root 13.269 19.1003 -0.0806262 -569.311 86.5486 -575.519
lowerback -2.33506 2.0543 -3.0698
upperback 3.95814 3.16162 -3.23041
thorax 5.43655 1.55979 -1.40884
lowerneck 4.14076 -2.76172 8.57645
upperneck 19.6024 -2.35147 -4.17964
head 5.05736 -0.469288 -2.78942
rclavicle -3.02153e-014 2.3059e-014
rhumerus -42.0377 -9.08483 -79.9392
rradius 38.6681
rwrist -3.25289
rhand -6.40939 10.6694
rfingers 7.12502
rthumb 19.4388 -18.379
lclavicle -3.02153e-014 2.3059e-014
lhumerus -35.5123 -9.84639 81.0873
lradius 39.3296
lwrist 39.2519
lhand 10.3751 1.98565
lfingers 7.12502
lthumb 35.482 28.4278
rfemur 2.64596 -5.41679 7.5127
rtibia 19.6223
rfoot -12.7429 19.2982
rtoes -9.06726
lfemur -16.3029 24.3462 -21.2908
ltibia 32.3046
lfoot -10.9951 -28.0324
ltoes 7.93586
